<svg xmlns="http://www.w3.org/2000/svg" viewBox="0 0 128 128"><style><![CDATA[.J{stroke-linecap:round}.K{stroke-linejoin:round}.L{fill:#005985}.M{clip-path:url(#A)}.N{stroke-width:2.72}]]></style><defs><clipPath id="A"><path d="M14.9 7.34h95.7V116.1H14.9z" fill="none"/></clipPath></defs><path d="M62.77 116.1a47.86 47.86 0 1 0-47.86-47.86 47.86 47.86 0 0 0 47.86 47.86" class="L"/><path d="M37.1 54.33s-6.58 0-6.58 7.36v13.1s0 7.36 6.58 7.36h53.16s6.58 0 6.58-7.36V61.7s0-7.36-6.58-7.36H37.1" fill="#fff"/><path d="M46.84 60.25v15.98M78.7 60.25v15.98" stroke="#231f20" stroke-width="2.5" class="J K L"/><g class="M J K"><path d="M62.77 14.9V30.9" fill="none" stroke="#fff" stroke-width="9.06"/></g><g class="L"><path d="M84.2 32.9L96.4 10.94" stroke="#000" class="J K N"/><g class="M"><path d="M95.7,16.4a4.53,4.53,0,1,0-4.53-4.53A4.53,4.53,0,0,0,95.7,16.4"/></g><path d="M41.33 32.9L29.16 10.94" stroke="#231f20" class="J K N"/><g class="M"><path d="M29.84,16.4a4.53,4.53,0,1,1,4.53-4.53,4.53,4.53,0,0,1-4.53,4.53"/></g></g></svg>