<svg id="Layer_1" xmlns="http://www.w3.org/2000/svg" viewBox="0 0 170 78"><style>.st0{fill:#fff}</style><title>456163A5-F4F6-431F-832E-33529751ACD0</title><g id="_x21B3_-Symbols"><g id="UI_x2F_Icons_x2F_Logo_x2F_Dark"><g id="Logo"><path id="Combined-Shape" class="st0" d="M84.6 69.9h4.1l.5 1.2h-5.1l.1-.4-1.7 3.9c-.4 1 .3.9.7.9h1.5c.7 0 .7 1.2 0 1.2h-5.9c-.7 0-.7-1.2 0-1.2h.8c.4 0 .7 0 1.1-.9 0 0 6.4-14.3 6.5-14.4.2-.3.3-.3.5-.3h.9c.1 0 .3-.1.5.3.1.3 6.5 14.4 6.5 14.4.4.9.9.9 1.2.9h.6c.7 0 .7 1.2 0 1.2h-8.1c-.7 0-.7-1.2 0-1.2h.8c.4 0 1 0 .6-.9l-4.1-9.8-2 5.1zm27.8 0h4.1l.5 1.2h-5.1l.1-.4-1.7 3.9c-.4 1 .3.9.7.9h1.5c.7 0 .7 1.2 0 1.2h-5.9c-.7 0-.7-1.2 0-1.2h.8c.4 0 .7 0 1.1-.9 0 0 6.4-14.2 6.5-14.3.1-.1.2-.4.5-.4h.9c.1 0 .3-.1.5.3.1.3 6.5 14.4 6.5 14.4.4.9.9.9 1.2.9h.6c.7 0 .7 1.2 0 1.2h-8.1c-.7 0-.7-1.2 0-1.2h.8c.4 0 1 0 .6-.9l-4.1-9.8-2 5.1zm35.1 4.8c0 .7.6.9 1 .9h.8c.7 0 .7 1.1 0 1.1h-7.8c-.7 0-.7-1.1 0-1.1h.8c.4 0 1-.2 1-.9V62.6c0-.7-.6-.9-1-.9h-.8c-.7 0-.7-1.1 0-1.1h7.8c.7 0 .7 1.1 0 1.1h-.8c-.4 0-1 .2-1 .9v12.1zm-47.6-12l3.8 9.4 4.1-9.4c.4-1-.3-.9-.7-.9h-.7c-.7 0-.7-1.2 0-1.2h5c.7 0 .7 1.2 0 1.2h-.8c-.4 0-.6 0-1.1.9 0 0-6.3 14.3-6.4 14.4-.2.3-.2.3-.4.3h-.7c-.1 0-.3 0-.4-.3-.1-.3-6.4-14.4-6.4-14.4-.4-.9-.8-.9-1.2-.9h-.6c-.7 0-.7-1.2 0-1.2h8c.7 0 .7 1.2 0 1.2h-.8c-.4 0-1 0-.7.9zm-43.7 2.9l3.2 3.1-3.2 3.1-3.2-3.1 3.2-3.1zM0 72.9c0-.5 1.2-.7 1.2 0 0 1.3.6 3.9 4 3.9s3.7-2.4 3.7-3.2c0-3.6-8.5-2.8-8.5-8.3 0-4 3.6-5.3 6.3-5.3 2.4 0 3.5.6 3.8.8.3.2.3.4.3.7v3c0 .4-.7.7-.9 0-.3-.7-1.2-3.4-3.2-3.4-2.3 0-3.1 1.6-3.1 2.6 0 3.7 8.5 2.2 8.5 8.3 0 3.4-3.2 6.1-6.9 6.1S.4 76.6.1 76.3L0 72.9zm47.8-.2c.3-.5.9-.4.9.3v2.2c0 .1 0 .3-.2.4-.2.1-2.2 1.8-5.4 1.8-4.8 0-10.2-2.8-10.2-8.8 0-5.3 5.6-8.6 10.4-8.6 1.4 0 3.9.6 4.4.8.5.2.5.4.6.6 0 .2.2 1.8.3 2.2.1.4-.6.9-1 .1-.6-.7-1.6-2.6-4.4-2.6-2.8 0-5.9 2.1-5.9 7.5s3.4 7.6 5.8 7.6c1.6.1 3.6-.7 4.7-3.5zm109.9-12.1l8.5 10.4v-8.4c0-.7-.6-.9-1-.9h-.8c-.7 0-.7-1.2 0-1.2h5.1c.7 0 .7 1.2 0 1.2h-.8c-.4 0-1 .2-1 .9V77c0 .1-.1.3-.3.3h-1.3c-.1 0-.2 0-.3-.1-.1-.1-11-13.5-11-13.5v11.1c0 .7.6.9 1 .9h.8c.7 0 .7 1.2 0 1.2h-5.1c-.7 0-.7-1.2 0-1.2h.8c.4 0 1-.2 1-.9V62.9c0-.8-.6-1.1-1.1-1.1h-.7c-.7 0-.7-1.2 0-1.2h6.2zm-137.8 0L28.4 71v-8.4c0-.7-.6-.9-1-.9h-.8c-.7 0-.7-1.2 0-1.2h5.1c.7 0 .7 1.2 0 1.2h-.8c-.4 0-1 .2-1 .9V77c0 .1-.1.3-.3.3h-1.3c-.1 0-.2 0-.3-.1-.1-.1-11-13.5-11-13.5v11.1c0 .7.6.9 1 .9h.8c.7 0 .7 1.2 0 1.2h-5.1c-.7 0-.7-1.2 0-1.2h.8c.4 0 1-.2 1-.9V62.9c0-.8-.6-1.1-1.1-1.1h-.7c-.7 0-.7-1.2 0-1.2h6.2zM73.2 76c.7 0 2.7 0 4.1-2.8.2-.6 1.2-.5 1.1.2l-.5 3c0 .2-.2.4-.5.4H65c-.7 0-.7-1.1 0-1.1h.8c.4 0 1-.2 1-.9V62.6c0-.7-.6-.9-1-.9H65c-.7 0-.7-1.1 0-1.1h7.9c.7 0 .7 1.1 0 1.1h-.8c-.4 0-1 .2-1 .9v11.5c0 1.5.9 1.9 2.1 1.9zm61.9 0c.7 0 2.7 0 4.1-2.8.2-.6 1.2-.5 1.1.2l-.5 3c0 .2-.2.4-.5.4h-12.4c-.7 0-.7-1.1 0-1.1h.8c.4 0 1-.2 1-.9V62.6c0-.7-.6-.9-1-.9h-.8c-.7 0-.7-1.1 0-1.1h7.9c.7 0 .7 1.1 0 1.1h-.8c-.4 0-1 .2-1 .9v11.5c0 1.5.9 1.9 2.1 1.9z"/><path id="Combined-Shape_1_" class="st0" d="M33 22l11.6-11.8L56.2 22 44.6 33.8 33 22zm14 18.2c5.5-2.4 16-13.7 16-17.9 0-4.2-10.8-15.7-16.3-17.9C48.5 3 50.5 2 52.6 1.2c7.7 4.4 15.5 14.1 15.5 21.1 0 6.9-7.5 16.4-15.1 20.9-2.1-.6-4.2-1.6-6-3zM61.9 0C73.2.9 82 10.4 82 22c0 11.4-8.5 20.8-19.5 22 6.6-5.6 11.3-13.8 11.3-21.8.1-8.2-5-16.6-11.9-22.2z"/></g></g></g></svg>